# MagicaVoxel @ Ephtracy

# group
o 

# material
mtllib Walls-0.mtl
usemtl palette

# normals
vn -1 0 0
vn 1 0 0
vn 0 0 1
vn 0 0 -1
vn 0 -1 0
vn 0 1 0

# texcoords
vt 0.939453 0.5
vt 0.970703 0.5
vt 0.974609 0.5

# verts
v -0.2 0 2
v -0.2 0 1.5
v -0.2 0 1.1
v -0.2 0 0.7
v -0.2 0 0.2
v -0.2 0 -2.38419e-007
v -0.2 0 -0.3
v -0.2 0 -0.9
v -0.2 0 -2
v -0.2 0.1 1.7
v -0.2 0.1 1.6
v -0.2 0.1 0.9
v -0.2 0.1 0.8
v -0.2 0.1 0.7
v -0.2 0.1 0.4
v -0.2 0.1 0.2
v -0.2 0.1 -2.38419e-007
v -0.2 0.1 -0.1
v -0.2 0.1 -0.3
v -0.2 0.1 -0.4
v -0.2 0.1 -0.5
v -0.2 0.1 -0.9
v -0.2 0.1 -1.4
v -0.2 0.1 -1.5
v -0.2 0.1 -1.6
v -0.2 0.1 -1.9
v -0.2 0.2 2
v -0.2 0.2 1.7
v -0.2 0.2 1.6
v -0.2 0.2 1.5
v -0.2 0.2 1.1
v -0.2 0.2 0.9
v -0.2 0.2 0.8
v -0.2 0.2 0.7
v -0.2 0.2 0.4
v -0.2 0.2 0.2
v -0.2 0.2 -0.1
v -0.2 0.2 -0.4
v -0.2 0.2 -0.5
v -0.2 0.2 -1.4
v -0.2 0.2 -1.5
v -0.2 0.2 -1.6
v -0.2 0.2 -1.9
v -0.2 0.2 -2
v 0.3 0 2
v 0.3 0 -0.1
v 0.3 0 -0.7
v 0.3 0 -1.5
v 0.3 0 -1.6
v 0.3 0 -1.7
v 0.3 0 -2
v 0.3 0.1 1.5
v 0.3 0.1 1.2
v 0.3 0.1 1.1
v 0.3 0.1 0.7
v 0.3 0.1 0.6
v 0.3 0.1 0.3
v 0.3 0.1 -0.9
v 0.3 0.1 -1.5
v 0.3 0.1 -1.6
v 0.3 0.1 -1.7
v 0.3 0.1 -2
v 0.3 0.2 2
v 0.3 0.2 1.5
v 0.3 0.2 1.2
v 0.3 0.2 1.1
v 0.3 0.2 0.7
v 0.3 0.2 0.6
v 0.3 0.2 0.3
v 0.3 0.2 -0.1
v 0.3 0.2 -0.7
v 0.3 0.2 -0.9
v 0.3 0.2 -1.5
v 0.3 0.2 -2
v -0.2 0 2
v -0.2 0.2 2
v -0.1 0.1 2
v -0.1 0.2 2
v 0 0 2
v 0 0.1 2
v 0 0.2 2
v 0.1 0 2
v 0.1 0.2 2
v 0.2 0 2
v 0.2 0.2 2
v 0.3 0 2
v 0.3 0.2 2
v -0.2 0 -2
v -0.2 0.2 -2
v 0.2 0 -2
v 0.2 0.1 -2
v 0.3 0 -2
v 0.3 0.1 -2
v 0.3 0.2 -2
v -0.2 0 2
v 0 0 2
v 0.1 0 2
v 0.2 0 2
v 0.3 0 2
v 0.1 0 1.9
v 0.2 0 1.9
v -0.2 0 1.5
v -0.1 0 1.5
v -0.2 0 1.1
v -0.1 0 1.1
v 0.1 0 1
v 0.2 0 1
v 0.1 0 0.9
v 0.2 0 0.9
v -0.2 0 0.7
v 0 0 0.7
v 0.1 0 0.5
v 0.2 0 0.5
v 0 0 0.4
v 0.1 0 0.4
v 0.2 0 0.4
v 0 0 0.3
v 0.1 0 0.3
v 0.2 0 0.3
v -0.2 0 0.2
v -0.1 0 0.2
v 0 0 0.2
v 0.1 0 0.2
v 0 0 0.0999999
v 0.1 0 0.0999999
v -0.2 0 -2.38419e-007
v -0.1 0 -2.38419e-007
v 0.1 0 -0.1
v 0.2 0 -0.1
v 0.3 0 -0.1
v -0.2 0 -0.3
v -0.1 0 -0.3
v 0 0 -0.3
v 0.1 0 -0.3
v 0 0 -0.4
v 0.1 0 -0.4
v 0 0 -0.7
v 0.1 0 -0.7
v 0.2 0 -0.7
v 0.3 0 -0.7
v -0.2 0 -0.9
v -0.1 0 -0.9
v 0 0 -0.9
v 0.1 0 -0.9
v -0.1 0 -1
v 0 0 -1
v -0.1 0 -1.2
v 0 0 -1.2
v 0 0 -1.4
v 0.1 0 -1.4
v 0 0 -1.5
v 0.1 0 -1.5
v 0.2 0 -1.5
v 0.3 0 -1.5
v -0.1 0 -1.6
v 0 0 -1.6
v 0.2 0 -1.6
v 0.3 0 -1.6
v -0.1 0 -1.7
v 0 0 -1.7
v 0.2 0 -1.7
v 0.3 0 -1.7
v -0.2 0 -2
v 0.2 0 -2
v 0.3 0 -2
v -0.2 0.2 2
v -0.1 0.2 2
v 0 0.2 2
v 0.1 0.2 2
v 0.2 0.2 2
v 0.3 0.2 2
v 0.1 0.2 1.9
v 0.2 0.2 1.9
v -0.1 0.2 1.8
v 0 0.2 1.8
v -0.2 0.2 1.7
v -0.1 0.2 1.7
v 0 0.2 1.7
v -0.2 0.2 1.6
v -0.1 0.2 1.6
v 0 0.2 1.6
v -0.2 0.2 1.5
v 0 0.2 1.5
v 0.2 0.2 1.5
v 0.3 0.2 1.5
v -0.1 0.2 1.3
v 0 0.2 1.3
v -0.1 0.2 1.2
v 0 0.2 1.2
v 0.2 0.2 1.2
v 0.3 0.2 1.2
v -0.2 0.2 1.1
v -0.1 0.2 1.1
v 0.2 0.2 1.1
v 0.3 0.2 1.1
v 0.1 0.2 1
v 0.2 0.2 1
v -0.2 0.2 0.9
v -0.1 0.2 0.9
v 0 0.2 0.9
v 0.1 0.2 0.9
v 0.2 0.2 0.9
v -0.2 0.2 0.8
v -0.1 0.2 0.8
v -0.2 0.2 0.7
v 0 0.2 0.7
v 0.2 0.2 0.7
v 0.3 0.2 0.7
v 0.2 0.2 0.6
v 0.3 0.2 0.6
v -0.2 0.2 0.4
v -0.1 0.2 0.4
v 0 0.2 0.4
v 0.2 0.2 0.3
v 0.3 0.2 0.3
v -0.2 0.2 0.2
v -0.1 0.2 0.2
v 0 0.2 -2.38419e-007
v 0.2 0.2 -2.38419e-007
v -0.2 0.2 -0.1
v -0.1 0.2 -0.1
v 0 0.2 -0.1
v 0.1 0.2 -0.1
v 0.2 0.2 -0.1
v 0.3 0.2 -0.1
v 0 0.2 -0.2
v 0.1 0.2 -0.2
v 0.2 0.2 -0.2
v -0.2 0.2 -0.4
v -0.1 0.2 -0.4
v 0 0.2 -0.4
v 0.1 0.2 -0.4
v -0.2 0.2 -0.5
v -0.1 0.2 -0.5
v 0.1 0.2 -0.5
v 0.2 0.2 -0.7
v 0.3 0.2 -0.7
v -0.1 0.2 -0.8
v 0 0.2 -0.8
v 0.1 0.2 -0.8
v 0.1 0.2 -0.9
v 0.3 0.2 -0.9
v 0 0.2 -1
v 0.1 0.2 -1
v -0.1 0.2 -1.3
v 0.1 0.2 -1.3
v -0.2 0.2 -1.4
v -0.1 0.2 -1.4
v 0 0.2 -1.4
v 0.1 0.2 -1.4
v -0.2 0.2 -1.5
v -0.1 0.2 -1.5
v 0.1 0.2 -1.5
v 0.3 0.2 -1.5
v -0.2 0.2 -1.6
v -0.1 0.2 -1.6
v -0.1 0.2 -1.7
v 0 0.2 -1.7
v 0.1 0.2 -1.7
v -0.2 0.2 -1.9
v -0.1 0.2 -1.9
v 0 0.2 -1.9
v 0.1 0.2 -1.9
v -0.2 0.2 -2
v 0.3 0.2 -2

# faces
f 10/3/1 2/3/1 1/3/1
f 11/3/1 2/3/1 10/3/1
f 12/3/1 4/3/1 3/3/1
f 13/3/1 4/3/1 12/3/1
f 14/2/1 5/2/1 4/2/1
f 14/3/1 4/3/1 13/3/1
f 15/2/1 5/2/1 14/2/1
f 16/1/1 6/1/1 5/1/1
f 16/2/1 5/2/1 15/2/1
f 17/2/1 7/2/1 6/2/1
f 17/1/1 6/1/1 16/1/1
f 18/2/1 7/2/1 17/2/1
f 19/3/1 8/3/1 7/3/1
f 19/2/1 7/2/1 18/2/1
f 20/3/1 8/3/1 19/3/1
f 21/3/1 8/3/1 20/3/1
f 22/2/1 9/2/1 8/2/1
f 22/3/1 8/3/1 21/3/1
f 23/2/1 9/2/1 22/2/1
f 24/2/1 9/2/1 23/2/1
f 25/2/1 9/2/1 24/2/1
f 26/2/1 9/2/1 25/2/1
f 27/3/1 10/3/1 1/3/1
f 28/1/1 11/1/1 10/1/1
f 28/3/1 10/3/1 27/3/1
f 29/3/1 2/3/1 11/3/1
f 29/1/1 11/1/1 28/1/1
f 30/2/1 3/2/1 2/2/1
f 30/3/1 2/3/1 29/3/1
f 31/3/1 12/3/1 3/3/1
f 31/2/1 3/2/1 30/2/1
f 32/2/1 13/2/1 12/2/1
f 32/3/1 12/3/1 31/3/1
f 33/3/1 14/3/1 13/3/1
f 33/2/1 13/2/1 32/2/1
f 34/1/1 15/1/1 14/1/1
f 34/3/1 14/3/1 33/3/1
f 35/3/1 16/3/1 15/3/1
f 35/1/1 15/1/1 34/1/1
f 36/1/1 18/1/1 17/1/1
f 36/3/1 16/3/1 35/3/1
f 36/1/1 17/1/1 16/1/1
f 37/2/1 19/2/1 18/2/1
f 37/1/1 18/1/1 36/1/1
f 37/2/1 20/2/1 19/2/1
f 38/1/1 21/1/1 20/1/1
f 38/2/1 20/2/1 37/2/1
f 39/2/1 22/2/1 21/2/1
f 39/1/1 21/1/1 38/1/1
f 39/2/1 23/2/1 22/2/1
f 40/1/1 24/1/1 23/1/1
f 40/2/1 23/2/1 39/2/1
f 41/2/1 25/2/1 24/2/1
f 41/1/1 24/1/1 40/1/1
f 42/1/1 26/1/1 25/1/1
f 42/2/1 25/2/1 41/2/1
f 43/2/1 9/2/1 26/2/1
f 43/1/1 26/1/1 42/1/1
f 44/2/1 9/2/1 43/2/1
f 45/2/2 46/2/2 52/2/2
f 52/2/2 46/2/2 53/2/2
f 53/2/2 46/2/2 54/2/2
f 54/2/2 46/2/2 55/2/2
f 55/2/2 46/2/2 56/2/2
f 56/2/2 46/2/2 57/2/2
f 47/2/2 48/2/2 58/2/2
f 48/1/2 49/1/2 59/1/2
f 58/2/2 48/2/2 59/2/2
f 49/2/2 50/2/2 60/2/2
f 59/1/2 49/1/2 60/1/2
f 50/3/2 51/3/2 61/3/2
f 60/2/2 50/2/2 61/2/2
f 61/3/2 51/3/2 62/3/2
f 45/2/2 52/2/2 63/2/2
f 52/3/2 53/3/2 64/3/2
f 63/2/2 52/2/2 64/2/2
f 53/2/2 54/2/2 65/2/2
f 64/3/2 53/3/2 65/3/2
f 54/3/2 55/3/2 66/3/2
f 65/2/2 54/2/2 66/2/2
f 55/2/2 56/2/2 67/2/2
f 66/3/2 55/3/2 67/3/2
f 56/3/2 57/3/2 68/3/2
f 67/2/2 56/2/2 68/2/2
f 57/2/2 46/2/2 69/2/2
f 68/3/2 57/3/2 69/3/2
f 46/3/2 47/3/2 70/3/2
f 69/2/2 46/2/2 70/2/2
f 47/2/2 58/2/2 71/2/2
f 70/3/2 47/3/2 71/3/2
f 58/3/2 59/3/2 72/3/2
f 71/2/2 58/2/2 72/2/2
f 59/2/2 60/2/2 73/2/2
f 72/3/2 59/3/2 73/3/2
f 60/2/2 61/2/2 73/2/2
f 61/2/2 62/2/2 73/2/2
f 73/2/2 62/2/2 74/2/2
f 77/3/3 76/3/3 75/3/3
f 78/3/3 76/3/3 77/3/3
f 79/3/3 77/3/3 75/3/3
f 80/1/3 78/1/3 77/1/3
f 80/3/3 77/3/3 79/3/3
f 81/1/3 78/1/3 80/1/3
f 82/2/3 80/2/3 79/2/3
f 82/2/3 81/2/3 80/2/3
f 83/2/3 81/2/3 82/2/3
f 84/3/3 83/3/3 82/3/3
f 85/3/3 83/3/3 84/3/3
f 86/2/3 85/2/3 84/2/3
f 87/2/3 85/2/3 86/2/3
f 88/2/4 89/2/4 90/2/4
f 90/2/4 89/2/4 91/2/4
f 90/3/4 91/3/4 92/3/4
f 91/2/4 89/2/4 93/2/4
f 92/3/4 91/3/4 93/3/4
f 93/2/4 89/2/4 94/2/4
f 100/2/5 97/2/5 96/2/5
f 100/3/5 98/3/5 97/3/5
f 101/2/5 99/2/5 98/2/5
f 101/3/5 98/3/5 100/3/5
f 102/3/5 96/3/5 95/3/5
f 103/3/5 96/3/5 102/3/5
f 104/2/5 103/2/5 102/2/5
f 105/3/5 96/3/5 103/3/5
f 105/2/5 103/2/5 104/2/5
f 106/2/5 100/2/5 96/2/5
f 106/2/5 101/2/5 100/2/5
f 107/2/5 99/2/5 101/2/5
f 107/2/5 101/2/5 106/2/5
f 108/2/5 106/2/5 96/2/5
f 108/1/5 107/1/5 106/1/5
f 109/2/5 99/2/5 107/2/5
f 109/1/5 107/1/5 108/1/5
f 110/3/5 105/3/5 104/3/5
f 111/2/5 108/2/5 96/2/5
f 111/3/5 105/3/5 110/3/5
f 111/3/5 96/3/5 105/3/5
f 111/2/5 109/2/5 108/2/5
f 112/2/5 111/2/5 110/2/5
f 112/2/5 109/2/5 111/2/5
f 113/2/5 99/2/5 109/2/5
f 113/2/5 109/2/5 112/2/5
f 114/2/5 112/2/5 110/2/5
f 115/1/5 113/1/5 112/1/5
f 115/2/5 112/2/5 114/2/5
f 116/2/5 99/2/5 113/2/5
f 116/1/5 113/1/5 115/1/5
f 117/1/5 115/1/5 114/1/5
f 117/2/5 114/2/5 110/2/5
f 118/2/5 116/2/5 115/2/5
f 118/1/5 115/1/5 117/1/5
f 119/2/5 99/2/5 116/2/5
f 119/2/5 116/2/5 118/2/5
f 120/2/5 118/2/5 117/2/5
f 120/2/5 117/2/5 110/2/5
f 121/2/5 118/2/5 120/2/5
f 122/2/5 118/2/5 121/2/5
f 123/3/5 119/3/5 118/3/5
f 123/2/5 118/2/5 122/2/5
f 124/2/5 122/2/5 121/2/5
f 124/1/5 123/1/5 122/1/5
f 125/3/5 119/3/5 123/3/5
f 125/1/5 123/1/5 124/1/5
f 126/1/5 121/1/5 120/1/5
f 127/2/5 124/2/5 121/2/5
f 127/1/5 121/1/5 126/1/5
f 127/2/5 125/2/5 124/2/5
f 128/3/5 119/3/5 125/3/5
f 128/2/5 125/2/5 127/2/5
f 128/2/5 127/2/5 126/2/5
f 129/2/5 99/2/5 119/2/5
f 129/3/5 119/3/5 128/3/5
f 130/2/5 99/2/5 129/2/5
f 131/2/5 128/2/5 126/2/5
f 131/2/5 129/2/5 128/2/5
f 132/2/5 129/2/5 131/2/5
f 133/2/5 129/2/5 132/2/5
f 134/2/5 129/2/5 133/2/5
f 135/2/5 133/2/5 132/2/5
f 135/1/5 134/1/5 133/1/5
f 136/2/5 129/2/5 134/2/5
f 136/1/5 134/1/5 135/1/5
f 137/2/5 135/2/5 132/2/5
f 137/2/5 136/2/5 135/2/5
f 138/2/5 129/2/5 136/2/5
f 138/2/5 136/2/5 137/2/5
f 139/3/5 130/3/5 129/3/5
f 139/2/5 129/2/5 138/2/5
f 140/3/5 130/3/5 139/3/5
f 141/3/5 132/3/5 131/3/5
f 142/2/5 137/2/5 132/2/5
f 142/3/5 132/3/5 141/3/5
f 143/1/5 138/1/5 137/1/5
f 143/2/5 137/2/5 142/2/5
f 144/2/5 139/2/5 138/2/5
f 144/1/5 138/1/5 143/1/5
f 144/2/5 140/2/5 139/2/5
f 145/2/5 142/2/5 141/2/5
f 145/2/5 143/2/5 142/2/5
f 145/2/5 144/2/5 143/2/5
f 146/2/5 144/2/5 145/2/5
f 147/2/5 145/2/5 141/2/5
f 147/1/5 146/1/5 145/1/5
f 148/2/5 144/2/5 146/2/5
f 148/1/5 146/1/5 147/1/5
f 149/2/5 148/2/5 147/2/5
f 149/2/5 144/2/5 148/2/5
f 150/2/5 140/2/5 144/2/5
f 150/2/5 144/2/5 149/2/5
f 151/2/5 149/2/5 147/2/5
f 151/1/5 150/1/5 149/1/5
f 152/2/5 140/2/5 150/2/5
f 152/1/5 150/1/5 151/1/5
f 153/2/5 140/2/5 152/2/5
f 154/2/5 140/2/5 153/2/5
f 155/2/5 151/2/5 147/2/5
f 155/2/5 147/2/5 141/2/5
f 155/2/5 152/2/5 151/2/5
f 155/2/5 153/2/5 152/2/5
f 156/2/5 153/2/5 155/2/5
f 157/1/5 154/1/5 153/1/5
f 157/2/5 153/2/5 156/2/5
f 158/1/5 154/1/5 157/1/5
f 159/1/5 156/1/5 155/1/5
f 159/2/5 155/2/5 141/2/5
f 160/2/5 158/2/5 157/2/5
f 160/1/5 156/1/5 159/1/5
f 160/2/5 157/2/5 156/2/5
f 161/2/5 158/2/5 160/2/5
f 162/2/5 158/2/5 161/2/5
f 163/2/5 159/2/5 141/2/5
f 163/2/5 160/2/5 159/2/5
f 163/2/5 161/2/5 160/2/5
f 164/3/5 162/3/5 161/3/5
f 164/2/5 161/2/5 163/2/5
f 165/3/5 162/3/5 164/3/5
f 168/2/6 169/2/6 172/2/6
f 169/3/6 170/3/6 172/3/6
f 170/2/6 171/2/6 173/2/6
f 172/3/6 170/3/6 173/3/6
f 166/3/6 167/3/6 174/3/6
f 167/1/6 168/1/6 174/1/6
f 172/2/6 173/2/6 175/2/6
f 174/1/6 168/1/6 175/1/6
f 168/2/6 172/2/6 175/2/6
f 166/3/6 174/3/6 176/3/6
f 174/3/6 175/3/6 176/3/6
f 176/3/6 175/3/6 177/3/6
f 175/2/6 173/2/6 178/2/6
f 177/3/6 175/3/6 178/3/6
f 176/1/6 177/1/6 179/1/6
f 177/2/6 178/2/6 180/2/6
f 179/1/6 177/1/6 180/1/6
f 178/2/6 173/2/6 181/2/6
f 180/2/6 178/2/6 181/2/6
f 179/3/6 180/3/6 182/3/6
f 180/3/6 181/3/6 182/3/6
f 181/2/6 173/2/6 183/2/6
f 182/3/6 181/3/6 183/3/6
f 173/2/6 171/2/6 184/2/6
f 183/2/6 173/2/6 184/2/6
f 184/2/6 171/2/6 185/2/6
f 182/2/6 183/2/6 186/2/6
f 183/2/6 184/2/6 186/2/6
f 186/2/6 184/2/6 187/2/6
f 182/2/6 186/2/6 188/2/6
f 186/3/6 187/3/6 188/3/6
f 187/2/6 184/2/6 189/2/6
f 188/3/6 187/3/6 189/3/6
f 184/3/6 185/3/6 190/3/6
f 189/2/6 184/2/6 190/2/6
f 190/3/6 185/3/6 191/3/6
f 182/2/6 188/2/6 192/2/6
f 188/1/6 189/1/6 193/1/6
f 192/2/6 188/2/6 193/2/6
f 189/2/6 190/2/6 194/2/6
f 190/2/6 191/2/6 194/2/6
f 194/2/6 191/2/6 195/2/6
f 189/2/6 194/2/6 196/2/6
f 194/3/6 195/3/6 197/3/6
f 196/2/6 194/2/6 197/2/6
f 192/3/6 193/3/6 198/3/6
f 193/1/6 189/1/6 199/1/6
f 198/3/6 193/3/6 199/3/6
f 189/2/6 196/2/6 200/2/6
f 199/1/6 189/1/6 200/1/6
f 196/1/6 197/1/6 201/1/6
f 200/2/6 196/2/6 201/2/6
f 197/3/6 195/3/6 202/3/6
f 201/1/6 197/1/6 202/1/6
f 198/2/6 199/2/6 203/2/6
f 199/3/6 200/3/6 204/3/6
f 203/2/6 199/2/6 204/2/6
f 203/3/6 204/3/6 205/3/6
f 200/2/6 201/2/6 206/2/6
f 205/3/6 204/3/6 206/3/6
f 201/2/6 202/2/6 206/2/6
f 204/3/6 200/3/6 206/3/6
f 202/3/6 195/3/6 207/3/6
f 206/2/6 202/2/6 207/2/6
f 207/3/6 195/3/6 208/3/6
f 206/2/6 207/2/6 209/2/6
f 207/2/6 208/2/6 209/2/6
f 209/2/6 208/2/6 210/2/6
f 205/1/6 206/1/6 211/1/6
f 211/1/6 206/1/6 212/1/6
f 206/2/6 209/2/6 213/2/6
f 212/1/6 206/1/6 213/1/6
f 209/3/6 210/3/6 214/3/6
f 213/2/6 209/2/6 214/2/6
f 212/2/6 213/2/6 214/2/6
f 214/3/6 210/3/6 215/3/6
f 211/3/6 212/3/6 216/3/6
f 212/2/6 214/2/6 217/2/6
f 216/3/6 212/3/6 217/3/6
f 214/2/6 215/2/6 217/2/6
f 217/2/6 215/2/6 218/2/6
f 218/2/6 215/2/6 219/2/6
f 216/1/6 217/1/6 220/1/6
f 217/2/6 218/2/6 221/2/6
f 220/1/6 217/1/6 221/1/6
f 218/1/6 219/1/6 222/1/6
f 221/2/6 218/2/6 222/2/6
f 222/1/6 219/1/6 223/1/6
f 219/2/6 215/2/6 224/2/6
f 223/1/6 219/1/6 224/1/6
f 224/2/6 215/2/6 225/2/6
f 222/2/6 223/2/6 226/2/6
f 220/2/6 221/2/6 226/2/6
f 221/2/6 222/2/6 226/2/6
f 223/1/6 224/1/6 227/1/6
f 226/2/6 223/2/6 227/2/6
f 224/3/6 225/3/6 228/3/6
f 227/1/6 224/1/6 228/1/6
f 220/2/6 226/2/6 229/2/6
f 229/2/6 226/2/6 230/2/6
f 226/1/6 227/1/6 231/1/6
f 230/2/6 226/2/6 231/2/6
f 227/2/6 228/2/6 232/2/6
f 231/1/6 227/1/6 232/1/6
f 229/1/6 230/1/6 233/1/6
f 230/2/6 231/2/6 234/2/6
f 233/1/6 230/1/6 234/1/6
f 231/2/6 232/2/6 234/2/6
f 232/2/6 228/2/6 235/2/6
f 234/2/6 232/2/6 235/2/6
f 228/3/6 225/3/6 236/3/6
f 235/2/6 228/2/6 236/2/6
f 236/3/6 225/3/6 237/3/6
f 233/2/6 234/2/6 238/2/6
f 234/3/6 235/3/6 238/3/6
f 238/3/6 235/3/6 239/3/6
f 236/2/6 237/2/6 240/2/6
f 239/3/6 235/3/6 240/3/6
f 235/2/6 236/2/6 240/2/6
f 239/1/6 240/1/6 241/1/6
f 240/2/6 237/2/6 241/2/6
f 241/2/6 237/2/6 242/2/6
f 238/2/6 239/2/6 243/2/6
f 239/1/6 241/1/6 243/1/6
f 241/3/6 242/3/6 244/3/6
f 243/1/6 241/1/6 244/1/6
f 233/2/6 238/2/6 245/2/6
f 238/2/6 243/2/6 245/2/6
f 243/2/6 244/2/6 245/2/6
f 244/3/6 242/3/6 246/3/6
f 245/2/6 244/2/6 246/2/6
f 233/2/6 245/2/6 247/2/6
f 245/1/6 246/1/6 248/1/6
f 247/2/6 245/2/6 248/2/6
f 248/1/6 246/1/6 249/1/6
f 246/3/6 242/3/6 250/3/6
f 249/1/6 246/1/6 250/1/6
f 248/1/6 249/1/6 251/1/6
f 247/1/6 248/1/6 251/1/6
f 251/1/6 249/1/6 252/1/6
f 250/3/6 242/3/6 253/3/6
f 249/2/6 250/2/6 253/2/6
f 253/3/6 242/3/6 254/3/6
f 251/2/6 252/2/6 255/2/6
f 252/1/6 249/1/6 256/1/6
f 255/2/6 252/2/6 256/2/6
f 255/1/6 256/1/6 257/1/6
f 256/1/6 249/1/6 257/1/6
f 249/2/6 253/2/6 258/2/6
f 257/1/6 249/1/6 258/1/6
f 253/2/6 254/2/6 258/2/6
f 258/2/6 254/2/6 259/2/6
f 255/1/6 257/1/6 260/1/6
f 257/2/6 258/2/6 261/2/6
f 260/1/6 257/1/6 261/1/6
f 258/1/6 259/1/6 262/1/6
f 261/2/6 258/2/6 262/2/6
f 259/2/6 254/2/6 263/2/6
f 262/1/6 259/1/6 263/1/6
f 261/2/6 262/2/6 264/2/6
f 260/2/6 261/2/6 264/2/6
f 262/2/6 263/2/6 264/2/6
f 263/2/6 254/2/6 265/2/6
f 264/2/6 263/2/6 265/2/6
